# xmcd CD database file
#
# Track frame offsets:
#	150
#	18092
#	36037
#	52665
#	73442
#	91397
#	108180
#	120410
#	134157
#	147877
#	159967
#	170352
#	182325
#	189270
#	197667
#	213184
#	225945
#	240347
#
# Disc length: 3384 seconds
#
# Revision: 4
# Processed by: cddbd v1.5.1PL0 Copyright (c) Steve Scherf et al.
# Submitted via: CDex 1.51
#
DISCID=dd0d3612
DTITLE=Lightnin' Hopkins - Morning Blues - Charly Blues Masterworks Vol.8
DYEAR=1997
DGENRE=Blues
TTITLE0=Found My Baby Crying
TTITLE1=Letter To My (Back Door Friend)
TTITLE2=Fishing Clothes
TTITLE3=Morning Blues
TTITLE4=Gamblers Blues
TTITLE5=Wig Wearing Woman
TTITLE6=Lonesome Dog Blues
TTITLE7=Last Affair
TTITLE8=Lovin' Arms
TTITLE9=Rock Me Mama
TTITLE10=Mr. Charlie Pt.1
TTITLE11=Mr. Charlie Pt.2
TTITLE12=Play With Your Poodle
TTITLE13=You're Too Fast
TTITLE14=Love Me This Morning
TTITLE15=I'm Comin' Home
TTITLE16=Ride In Your New Automobile
TTITLE17=Breakfast Time
EXTD=YEAR: 1997
EXTT0=
EXTT1=
EXTT2=
EXTT3=
EXTT4=
EXTT5=
EXTT6=
EXTT7=
EXTT8=
EXTT9=
EXTT10=
EXTT11=
EXTT12=
EXTT13=
EXTT14=
EXTT15=
EXTT16=
EXTT17=
PLAYORDER=
